<?xml version="1.0" encoding="UTF-8"?>
<svg width="48" height="48" viewBox="0 0 48 48" xmlns="http://www.w3.org/2000/svg">
  <!-- Background -->
  <circle cx="24" cy="24" r="22" fill="#1a1a2e" stroke="#37474f" stroke-width="2"/>

  <!-- AI Brain/Processor -->
  <rect x="14" y="14" width="20" height="20" rx="4" fill="#9c27b0" stroke="#7b1fa2" stroke-width="2"/>

  <!-- Circuit patterns -->
  <path d="M18 18 L30 18 M18 22 L30 22 M18 26 L30 26 M18 30 L30 30" stroke="#e1bee7" stroke-width="1"/>
  <circle cx="20" cy="18" r="1" fill="#e1bee7"/>
  <circle cx="28" cy="18" r="1" fill="#e1bee7"/>
  <circle cx="20" cy="22" r="1" fill="#e1bee7"/>
  <circle cx="28" cy="22" r="1" fill="#e1bee7"/>
  <circle cx="20" cy="26" r="1" fill="#e1bee7"/>
  <circle cx="28" cy="26" r="1" fill="#e1bee7"/>
  <circle cx="20" cy="30" r="1" fill="#e1bee7"/>
  <circle cx="28" cy="30" r="1" fill="#e1bee7"/>

  <!-- Central processing unit -->
  <rect x="20" y="20" width="8" height="8" rx="2" fill="#673ab7" stroke="#512da8" stroke-width="1"/>
  <circle cx="24" cy="24" r="2" fill="#9575cd"/>

  <!-- Danger indicators -->
  <polygon points="24,6 30,16 18,16" fill="#f44336"/>
  <text x="24" y="13" text-anchor="middle" font-family="Arial" font-size="8" font-weight="bold" fill="#fff">!</text>

  <!-- Network connections -->
  <path d="M34 24 L42 24" stroke="#ff5722" stroke-width="2"/>
  <path d="M14 24 L6 24" stroke="#ff5722" stroke-width="2"/>
  <path d="M24 34 L24 42" stroke="#ff5722" stroke-width="2"/>

  <!-- Warning signals -->
  <circle cx="42" cy="24" r="3" fill="#ff1744" opacity="0.7"/>
  <circle cx="6" cy="24" r="3" fill="#ff1744" opacity="0.7"/>
  <circle cx="24" cy="42" r="3" fill="#ff1744" opacity="0.7"/>
</svg>
