<?xml version="1.0" encoding="UTF-8"?>
<svg width="48" height="48" viewBox="0 0 48 48" xmlns="http://www.w3.org/2000/svg">
  <!-- Background space -->
  <circle cx="24" cy="24" r="22" fill="#0a0a0a" stroke="#1a1a1a" stroke-width="2"/>

  <!-- Stars -->
  <circle cx="8" cy="8" r="1" fill="#fff"/>
  <circle cx="40" cy="8" r="1" fill="#fff"/>
  <circle cx="8" cy="40" r="1" fill="#fff"/>
  <circle cx="40" cy="40" r="1" fill="#fff"/>
  <circle cx="12" cy="20" r="0.5" fill="#fff"/>
  <circle cx="36" cy="16" r="0.5" fill="#fff"/>
  <circle cx="14" cy="36" r="0.5" fill="#fff"/>

  <!-- Sun/Star -->
  <circle cx="24" cy="24" r="8" fill="#ffc107" stroke="#ff8f00" stroke-width="2"/>
  <path d="M24 8 L24 12 M24 36 L24 40 M8 24 L12 24 M36 24 L40 24" stroke="#ffeb3b" stroke-width="2" stroke-linecap="round"/>
  <path d="M15 15 L17 17 M31 31 L33 33 M33 15 L31 17 M17 31 L15 33" stroke="#ffeb3b" stroke-width="2" stroke-linecap="round"/>

  <!-- Solar flare/coronal mass ejection -->
  <path d="M32 24 Q38 20 42 24 Q38 28 32 24" fill="#ff5722" opacity="0.8"/>
  <path d="M35 21 Q40 18 44 21" stroke="#ff1744" stroke-width="2" stroke-linecap="round"/>
  <path d="M35 27 Q40 30 44 27" stroke="#ff1744" stroke-width="2" stroke-linecap="round"/>

  <!-- Magnetic field lines -->
  <path d="M16 24 Q8 16 4 24 Q8 32 16 24" fill="none" stroke="#00e676" stroke-width="2" opacity="0.6"/>
  <path d="M32 24 Q40 16 44 24 Q40 32 32 24" fill="none" stroke="#00e676" stroke-width="2" opacity="0.6"/>

  <!-- Radiation waves -->
  <circle cx="24" cy="24" r="12" fill="none" stroke="#ff9800" stroke-width="1" opacity="0.5"/>
  <circle cx="24" cy="24" r="16" fill="none" stroke="#ff5722" stroke-width="1" opacity="0.3"/>
</svg>
