<?xml version="1.0" encoding="UTF-8"?>
<svg width="48" height="48" viewBox="0 0 48 48" xmlns="http://www.w3.org/2000/svg">
  <!-- Background -->
  <circle cx="24" cy="24" r="22" fill="#1a1a2e" stroke="#37474f" stroke-width="2"/>

  <!-- Nuclear explosion mushroom cloud -->
  <ellipse cx="24" cy="30" rx="12" ry="8" fill="#616161"/>
  <ellipse cx="24" cy="24" rx="8" ry="6" fill="#757575"/>
  <ellipse cx="24" cy="18" rx="6" ry="4" fill="#9e9e9e"/>

  <!-- Explosion stem -->
  <rect x="22" y="30" width="4" height="10" fill="#424242"/>

  <!-- Nuclear flash -->
  <circle cx="24" cy="35" r="4" fill="#ffeb3b" opacity="0.8"/>
  <circle cx="24" cy="35" r="6" fill="#ff9800" opacity="0.6"/>
  <circle cx="24" cy="35" r="8" fill="#ff5722" opacity="0.4"/>

  <!-- Radiation symbol -->
  <circle cx="24" cy="12" r="6" fill="none" stroke="#ffc107" stroke-width="2"/>
  <path d="M24 6 L24 12 M30 12 L24 12 M18 12 L24 12" stroke="#ffc107" stroke-width="2"/>
  <path d="M27 9 L24 12 M21 9 L24 12 M24 15 L24 12" stroke="#ffc107" stroke-width="2"/>

  <!-- Blast waves -->
  <circle cx="24" cy="35" r="12" fill="none" stroke="#ff5722" stroke-width="2" opacity="0.5"/>
  <circle cx="24" cy="35" r="16" fill="none" stroke="#ff9800" stroke-width="1" opacity="0.3"/>

  <!-- Fallout particles -->
  <circle cx="12" cy="20" r="1" fill="#795548"/>
  <circle cx="36" cy="18" r="1" fill="#795548"/>
  <circle cx="8" cy="32" r="1" fill="#795548"/>
  <circle cx="40" cy="30" r="1" fill="#795548"/>
  <circle cx="16" cy="40" r="1" fill="#795548"/>
  <circle cx="32" cy="42" r="1" fill="#795548"/>
</svg>
